<?xml version="1.0" standalone="no"?>
<!DOCTYPE svg PUBLIC "-//W3C//DTD SVG 20010904//EN"
 "http://www.w3.org/TR/2001/REC-SVG-20010904/DTD/svg10.dtd">
<svg version="1.0" xmlns="http://www.w3.org/2000/svg"
 width="50" height="50" viewBox="0 0 637.000000 637.000000"
 preserveAspectRatio="xMidYMid meet">

<g transform="translate(0.000000,637.000000) scale(0.100000,-0.100000)"
fill="#CC232A" stroke="none">
<path d="M3010 6364 c-346 -29 -602 -80 -860 -169 -1090 -379 -1890 -1309
-2094 -2435 -39 -219 -50 -342 -50 -575 0 -233 11 -356 50 -575 212 -1167
1068 -2126 2206 -2470 513 -155 1045 -179 1572 -70 601 124 1163 428 1601 865
830 831 1135 2047 795 3173 -252 832 -840 1531 -1619 1921 -334 168 -667 268
-1053 316 -120 15 -458 27 -548 19z m-2165 -2813 l0 -44 180 -1 180 -1 1 -30
c1 -56 5 -55 -176 -55 -134 0 -170 -3 -180 -15 -24 -29 0 -35 137 -35 159 0
173 -6 173 -74 0 -33 4 -43 23 -51 17 -8 22 -18 22 -45 0 -27 -5 -37 -22 -45
-18 -7 -23 -18 -23 -45 0 -69 -11 -74 -172 -80 -132 -5 -143 -6 -143 -24 0
-17 10 -19 136 -20 179 -1 179 -2 179 -134 0 -84 -3 -98 -22 -119 l-21 -23
-313 0 -313 0 -21 27 c-19 25 -21 38 -18 120 4 128 2 127 179 131 124 4 140 6
137 20 -3 15 -23 17 -156 20 -165 3 -171 5 -158 57 l6 24 152 3 c137 3 153 5
156 21 3 16 -9 17 -180 15 l-183 -3 -6 -100 c-7 -109 -21 -195 -45 -275 l-15
-52 -42 6 c-62 10 -67 23 -46 114 25 104 39 263 39 458 0 225 -21 208 257 214
l218 5 3 30 c5 51 10 56 44 53 32 -3 33 -5 33 -47z m5113 -178 c-3 -17 -121
-18 -2293 -21 -1374 -1 -2293 2 -2298 7 -5 5 -6 14 -3 20 5 8 660 11 2302 11
2181 0 2295 -1 2292 -17z m-3390 -124 c2 -35 -2 -49 -17 -63 -23 -21 -46 -13
-32 11 4 9 6 36 3 60 -5 43 -4 45 19 41 21 -3 24 -9 27 -49z m1620 41 c28 0
32 -3 32 -25 0 -30 -24 -43 -45 -25 -25 21 -84 -2 -85 -33 0 -4 11 -12 25 -17
32 -12 32 -38 0 -50 -23 -9 -24 -13 -27 -117 -3 -100 -4 -108 -23 -108 -19 0
-20 8 -23 107 -2 95 -5 109 -22 118 -26 14 -25 36 0 50 12 7 20 21 20 37 0 15
10 37 22 51 19 19 29 22 58 17 19 -3 50 -6 68 -5z m-2510 -27 c3 -20 -1 -22
-55 -25 l-58 -3 -3 -157 c-2 -149 -4 -157 -23 -163 -12 -4 -25 -3 -30 2 -5 5
-10 78 -11 163 l-3 155 -60 5 c-58 5 -61 7 -56 40 0 7 53 10 149 8 143 -3 147
-4 150 -25z m1608 -7 c39 -39 45 -86 19 -136 -21 -41 -50 -53 -125 -55 -36 -1
-71 -5 -78 -9 -7 -4 -12 -31 -12 -65 0 -61 -16 -89 -45 -77 -13 4 -15 34 -15
184 0 98 3 182 7 185 3 4 53 7 111 7 l104 0 34 -34z m676 17 c7 -27 -2 -43
-23 -43 -14 0 -19 7 -19 30 0 23 5 30 19 30 10 0 21 -8 23 -17z m941 6 c54
-28 72 -87 42 -133 -15 -22 -14 -26 10 -61 29 -44 31 -64 9 -110 -24 -51 -66
-66 -176 -63 l-93 3 -3 188 -2 187 95 0 c53 0 106 -5 118 -11z m177 -20 c0
-26 -3 -30 -22 -27 -17 2 -24 11 -26 31 -3 23 0 27 22 27 22 0 26 -4 26 -31z
m382 -27 c-3 -27 1 -34 22 -42 33 -12 33 -38 1 -50 -23 -9 -25 -14 -25 -79 0
-51 4 -74 15 -83 38 -32 46 -41 42 -52 -2 -6 -20 -12 -39 -14 -55 -5 -68 21
-68 134 0 72 -3 93 -15 98 -8 3 -15 12 -15 19 0 8 7 20 15 27 8 7 15 22 15 34
0 27 19 48 40 44 11 -2 14 -13 12 -36z m-3604 -65 c17 -19 21 -39 24 -137 3
-106 1 -115 -16 -118 -10 -2 -22 2 -26 9 -7 10 -17 9 -52 -4 -75 -29 -148 7
-148 74 0 35 44 77 89 84 86 14 91 16 91 35 0 43 -68 52 -106 15 -29 -29 -52
-32 -61 -9 -11 29 41 68 99 74 66 7 81 4 106 -23z m565 19 c11 4 23 1 28 -7
12 -20 11 -262 -2 -296 -14 -38 -48 -73 -71 -73 -11 0 -16 -4 -13 -10 4 -7
615 -10 1801 -10 1705 0 1795 -1 1792 -17 -3 -17 -121 -18 -2298 -18 -2033 0
-2295 2 -2295 15 0 13 61 16 467 20 256 3 470 8 474 13 4 4 -3 7 -15 7 -24 0
-71 44 -71 67 0 26 30 25 61 -1 37 -31 72 -33 100 -5 22 22 21 56 -2 50 -71
-20 -124 2 -154 64 -12 28 -16 51 -12 86 11 91 62 133 145 118 25 -5 55 -6 65
-3z m1429 -26 c10 -12 18 -31 18 -41 0 -28 -38 -24 -62 6 -25 32 -52 32 -83 0
-33 -32 -36 -122 -6 -149 27 -25 83 -18 96 12 12 26 42 39 58 23 21 -21 -20
-78 -68 -97 -41 -15 -45 -15 -87 4 -53 23 -78 67 -78 137 0 72 37 125 95 137
37 7 99 -10 117 -32z m1840 16 c13 -19 -11 -47 -36 -40 -40 10 -56 -26 -56
-129 0 -69 -3 -89 -15 -93 -36 -14 -45 14 -45 136 0 125 7 144 47 134 12 -3
29 -2 39 4 19 11 55 4 66 -12z m-3704 2 c9 -9 15 -9 24 0 20 20 101 15 126 -8
29 -28 33 -49 30 -160 -3 -84 -5 -95 -22 -98 -29 -6 -36 16 -36 114 0 78 -3
93 -20 109 -17 15 -24 16 -50 5 -35 -15 -39 -27 -42 -140 -3 -74 -5 -85 -22
-88 -30 -6 -36 16 -36 139 0 106 7 139 30 139 3 0 11 -5 18 -12z m806 -9 c29
-23 34 -54 11 -63 -9 -3 -24 3 -34 13 -38 38 -101 38 -101 1 0 -14 13 -23 49
-34 57 -17 93 -34 103 -50 14 -20 8 -74 -9 -94 -55 -64 -212 -31 -201 41 4 30
24 31 49 3 26 -30 88 -36 109 -11 18 21 6 31 -65 55 -95 31 -122 84 -70 135
33 33 119 36 159 4z m771 5 c17 -13 21 -31 27 -132 6 -125 1 -145 -33 -124
-16 10 -28 10 -63 -2 -92 -31 -168 26 -137 103 16 36 44 52 107 58 68 7 88 27
55 54 -32 26 -64 24 -92 -6 -28 -29 -57 -32 -66 -8 -4 11 4 26 25 45 28 24 40
28 95 28 39 -1 69 -6 82 -16z m399 -6 c3 -13 6 -71 6 -129 0 -84 -3 -109 -15
-119 -11 -9 -19 -10 -26 -3 -12 12 -23 231 -13 257 9 24 41 20 48 -6z m254
-121 l3 -138 -23 3 c-22 3 -23 7 -26 118 -3 133 1 163 26 158 15 -3 17 -20 20
-141z m243 133 c21 -12 51 -64 42 -74 -13 -12 -36 -6 -65 19 -37 31 -53 31
-83 0 -20 -19 -25 -34 -25 -72 0 -64 20 -93 66 -93 28 0 38 6 52 30 18 31 28
35 51 21 12 -8 12 -14 2 -40 -31 -74 -138 -87 -197 -24 -47 51 -44 162 7 213
26 25 38 30 80 30 28 0 59 -5 70 -10z m619 -56 c3 -33 3 -94 0 -135 -4 -66 -7
-74 -25 -74 -19 0 -20 8 -23 124 -3 138 0 154 25 149 14 -2 19 -16 23 -64z
m229 51 c35 -18 46 -52 21 -65 -13 -7 -24 -4 -44 15 -31 28 -54 31 -81 11 -28
-20 -7 -41 55 -56 96 -23 127 -85 71 -141 -49 -49 -161 -39 -191 16 -26 49 16
76 46 30 13 -20 24 -25 59 -25 69 0 72 50 4 64 -108 21 -145 83 -88 144 24 27
104 30 148 7z m591 0 c40 -21 60 -63 60 -125 0 -66 -23 -105 -77 -131 -114
-55 -218 67 -172 200 22 63 120 92 189 56z"/>
<path d="M416 3407 c-14 -10 -16 -25 -14 -82 l3 -70 183 -3 c152 -2 182 0 182
12 0 23 -27 27 -166 25 -73 0 -137 2 -143 6 -16 9 -13 61 3 75 11 8 57 11 155
9 77 -2 143 0 147 4 4 3 4 13 1 22 -5 13 -32 15 -170 15 -116 0 -168 -4 -181
-13z"/>
<path d="M851 3276 c-20 -24 9 -31 104 -28 74 3 86 6 83 20 -4 24 -168 31
-187 8z"/>
<path d="M850 3136 c0 -8 6 -16 13 -19 9 -3 112 -2 170 2 4 1 7 8 7 16 0 12
-17 15 -95 15 -75 0 -95 -3 -95 -14z"/>
<path d="M576 2884 c-15 -15 -16 -50 -1 -74 4 -6 91 -10 236 -10 l230 0 -3 48
-3 47 -222 3 c-192 2 -223 0 -237 -14z"/>
<path d="M3098 3234 c-12 -12 -9 -112 3 -116 6 -2 38 -1 71 2 62 6 88 24 88
60 0 37 -26 54 -91 58 -35 2 -67 0 -71 -4z"/>
<path d="M4757 3233 c-3 -5 -7 -26 -9 -48 l-3 -40 63 -3 c40 -2 69 2 78 9 22
18 13 62 -16 76 -27 14 -106 18 -113 6z"/>
<path d="M4755 3078 c-4 -9 -5 -37 -3 -64 l3 -49 62 0 c68 0 103 21 103 61 0
32 -37 54 -104 61 -44 5 -57 3 -61 -9z"/>
<path d="M1780 3033 c-14 -2 -38 -9 -53 -15 -36 -14 -33 -49 6 -62 22 -8 32
-6 55 11 25 18 45 75 25 72 -4 -1 -19 -4 -33 -6z"/>
<path d="M2295 3125 c-50 -49 -21 -165 40 -165 40 0 65 36 65 96 0 45 -4 56
-26 73 -34 27 -50 26 -79 -4z"/>
<path d="M3480 3033 c-64 -8 -92 -54 -45 -75 32 -14 78 4 94 38 11 25 7 46 -7
42 -4 0 -23 -3 -42 -5z"/>
<path d="M5785 3125 c-20 -19 -25 -34 -25 -72 0 -64 21 -93 66 -93 51 0 74 28
74 90 0 87 -63 128 -115 75z"/>
</g>
</svg>
