<svg width="17" height="13" viewBox="0 0 17 13" fill="none" xmlns="http://www.w3.org/2000/svg">
  <path d="M3.81 7.52558L7.10502 10.8206C7.29226 11.0085 7.39719 11.2631 7.39672 11.5284C7.39625 11.7936 7.29043 12.0478 7.10252 12.2351C6.9146 12.4223 6.66 12.5273 6.39476 12.5268C6.12953 12.5263 5.87529 12.4205 5.688 12.2326L0.708 7.25258C0.61088 7.16136 0.533093 7.0516 0.479088 6.92979C0.425085 6.80797 0.396088 6.67658 0.393754 6.54336C0.391421 6.41015 0.415779 6.27782 0.465426 6.15419C0.515121 6.03056 0.589134 5.91815 0.682985 5.82358L5.688 0.818585C5.87657 0.636426 6.12923 0.535632 6.39142 0.53791C6.65362 0.540189 6.90439 0.645358 7.08984 0.830766C7.27525 1.01617 7.38041 1.26699 7.38269 1.52918C7.38497 1.79138 7.28418 2.04398 7.10202 2.23258L3.809 5.52558H15.395C15.6602 5.52558 15.9146 5.63094 16.1021 5.81848C16.2897 6.00601 16.395 6.26037 16.395 6.52558C16.395 6.7908 16.2897 7.04515 16.1021 7.23269C15.9146 7.42023 15.6602 7.52558 15.395 7.52558H3.81Z" fill="#928B80"/>
</svg>
